<svg xmlns="http://www.w3.org/2000/svg" width="900" height="280" viewBox="0 0 900 280">
  <rect x="0" y="0" width="900" height="280" fill="white"/>
  <text x="55" y="16" font-size="14" fill="#111">연도별 문헌 수(전체, 2000–2024)</text>
  <line x1="55" y1="22" x2="73" y2="22" stroke="#2E6DA4" stroke-width="2"/><text x="79" y="26" font-size="10" fill="#333">해당 클러스터 N_docs</text><line x1="275" y1="22" x2="293" y2="22" stroke="#999999" stroke-width="2"/><text x="299" y="26" font-size="10" fill="#333">195개 micro 합계 N_docs</text>
  <line x1="55" y1="34" x2="55" y2="242" stroke="#666"/>
  <line x1="845" y1="34" x2="845" y2="242" stroke="#666"/>
  <line x1="55" y1="242" x2="845" y2="242" stroke="#666"/>
  <line x1="51" y1="242.00" x2="55" y2="242.00" stroke="#666"/><text x="47" y="245.00" font-size="10" text-anchor="end" fill="#444">0</text><line x1="55" y1="242.00" x2="845" y2="242.00" stroke="#eee"/><line x1="51" y1="206.98" x2="55" y2="206.98" stroke="#666"/><text x="47" y="209.98" font-size="10" text-anchor="end" fill="#444">100</text><line x1="55" y1="206.98" x2="845" y2="206.98" stroke="#eee"/><line x1="51" y1="171.97" x2="55" y2="171.97" stroke="#666"/><text x="47" y="174.97" font-size="10" text-anchor="end" fill="#444">200</text><line x1="55" y1="171.97" x2="845" y2="171.97" stroke="#eee"/><line x1="51" y1="136.95" x2="55" y2="136.95" stroke="#666"/><text x="47" y="139.95" font-size="10" text-anchor="end" fill="#444">300</text><line x1="55" y1="136.95" x2="845" y2="136.95" stroke="#eee"/><line x1="51" y1="101.93" x2="55" y2="101.93" stroke="#666"/><text x="47" y="104.93" font-size="10" text-anchor="end" fill="#444">400</text><line x1="55" y1="101.93" x2="845" y2="101.93" stroke="#eee"/><line x1="51" y1="66.92" x2="55" y2="66.92" stroke="#666"/><text x="47" y="69.92" font-size="10" text-anchor="end" fill="#444">500</text><line x1="55" y1="66.92" x2="845" y2="66.92" stroke="#eee"/>
  <line x1="845" y1="242.00" x2="849" y2="242.00" stroke="#666"/><text x="853" y="245.00" font-size="10" text-anchor="start" fill="#444">0</text><line x1="845" y1="200.49" x2="849" y2="200.49" stroke="#666"/><text x="853" y="203.49" font-size="10" text-anchor="start" fill="#444">22700</text><line x1="845" y1="158.97" x2="849" y2="158.97" stroke="#666"/><text x="853" y="161.97" font-size="10" text-anchor="start" fill="#444">45400</text><line x1="845" y1="117.46" x2="849" y2="117.46" stroke="#666"/><text x="853" y="120.46" font-size="10" text-anchor="start" fill="#444">68100</text><line x1="845" y1="75.95" x2="849" y2="75.95" stroke="#666"/><text x="853" y="78.95" font-size="10" text-anchor="start" fill="#444">90800</text><line x1="845" y1="34.43" x2="849" y2="34.43" stroke="#666"/><text x="853" y="37.43" font-size="10" text-anchor="start" fill="#444">113500</text>
  <line x1="55.00" y1="242" x2="55.00" y2="246" stroke="#666"/><text x="55.00" y="270" font-size="10" text-anchor="middle" fill="#444">2000</text><line x1="219.58" y1="242" x2="219.58" y2="246" stroke="#666"/><text x="219.58" y="270" font-size="10" text-anchor="middle" fill="#444">2005</text><line x1="384.17" y1="242" x2="384.17" y2="246" stroke="#666"/><text x="384.17" y="270" font-size="10" text-anchor="middle" fill="#444">2010</text><line x1="548.75" y1="242" x2="548.75" y2="246" stroke="#666"/><text x="548.75" y="270" font-size="10" text-anchor="middle" fill="#444">2015</text><line x1="713.33" y1="242" x2="713.33" y2="246" stroke="#666"/><text x="713.33" y="270" font-size="10" text-anchor="middle" fill="#444">2020</text><line x1="845.00" y1="242" x2="845.00" y2="246" stroke="#666"/><text x="845.00" y="270" font-size="10" text-anchor="middle" fill="#444">2024</text>
  <polyline fill="none" stroke="#2E6DA4" stroke-width="2" points="55.00,233.60 87.92,235.70 120.83,232.90 153.75,231.14 186.67,227.99 219.58,227.99 252.50,220.64 285.42,220.29 318.33,217.84 351.25,215.39 384.17,205.93 417.08,212.94 450.00,191.23 482.92,189.82 515.83,174.07 548.75,175.47 581.67,162.16 614.58,154.81 647.50,129.25 680.42,135.90 713.33,118.39 746.25,94.58 779.17,66.57 812.08,56.06 845.00,34.00"/>
  <polyline fill="none" stroke="#999999" stroke-width="2" points="55.00,221.09 87.92,218.06 120.83,215.24 153.75,212.65 186.67,209.36 219.58,206.43 252.50,202.14 285.42,199.13 318.33,196.13 351.25,192.48 384.17,189.22 417.08,181.64 450.00,175.48 482.92,168.46 515.83,162.89 548.75,157.17 581.67,148.44 614.58,141.40 647.50,130.66 680.42,124.64 713.33,113.39 746.25,96.94 779.17,76.49 812.08,65.27 845.00,34.00"/>
</svg>
