<svg xmlns="http://www.w3.org/2000/svg" width="900" height="320" viewBox="0 0 900 320"><rect x="0" y="0" width="900" height="320" fill="white"/><text x="60" y="18" font-size="12" fill="#111">대안 C: 절대 ppm(log) + 연도별 문헌수(막대, 상위 5개)</text><line x1="60" y1="32" x2="60" y2="280" stroke="#444" stroke-width="1"/><line x1="60" y1="280" x2="680" y2="280" stroke="#444" stroke-width="1"/><line x1="680" y1="32" x2="680" y2="280" stroke="#444" stroke-width="1"/><text x="60.0" y="298" font-size="10" text-anchor="middle" fill="#333">2015</text><text x="128.9" y="298" font-size="10" text-anchor="middle" fill="#333">2016</text><text x="197.8" y="298" font-size="10" text-anchor="middle" fill="#333">2017</text><text x="266.7" y="298" font-size="10" text-anchor="middle" fill="#333">2018</text><text x="335.6" y="298" font-size="10" text-anchor="middle" fill="#333">2019</text><text x="404.4" y="298" font-size="10" text-anchor="middle" fill="#333">2020</text><text x="473.3" y="298" font-size="10" text-anchor="middle" fill="#333">2021</text><text x="542.2" y="298" font-size="10" text-anchor="middle" fill="#333">2022</text><text x="611.1" y="298" font-size="10" text-anchor="middle" fill="#333">2023</text><text x="680.0" y="298" font-size="10" text-anchor="middle" fill="#333">2024</text><line x1="60" y1="280.0" x2="680" y2="280.0" stroke="#eee" stroke-width="1"/><text x="54" y="284.0" font-size="10" text-anchor="end" fill="#555">0</text><line x1="60" y1="156.0" x2="680" y2="156.0" stroke="#eee" stroke-width="1"/><text x="54" y="160.0" font-size="10" text-anchor="end" fill="#555">222</text><line x1="60" y1="32.0" x2="680" y2="32.0" stroke="#eee" stroke-width="1"/><text x="54" y="36.0" font-size="10" text-anchor="end" fill="#555">49630</text><text x="60" y="22" font-size="10" fill="#555">ppm (log)</text><text x="686" y="284.0" font-size="10" fill="#555">0</text><text x="686" y="160.0" font-size="10" fill="#555">136</text><text x="686" y="36.0" font-size="10" fill="#555">272</text><text x="686" y="22" font-size="10" fill="#555">문헌수</text><rect x="44.5" y="193.4" width="31.0" height="86.6" fill="#999" fill-opacity="0.25" stroke="none"/><rect x="113.4" y="176.1" width="31.0" height="103.9" fill="#999" fill-opacity="0.25" stroke="none"/><rect x="182.3" y="163.3" width="31.0" height="116.7" fill="#999" fill-opacity="0.25" stroke="none"/><rect x="251.2" y="137.8" width="31.0" height="142.2" fill="#999" fill-opacity="0.25" stroke="none"/><rect x="320.1" y="126.8" width="31.0" height="153.2" fill="#999" fill-opacity="0.25" stroke="none"/><rect x="388.9" y="123.2" width="31.0" height="156.8" fill="#999" fill-opacity="0.25" stroke="none"/><rect x="457.8" y="99.5" width="31.0" height="180.5" fill="#999" fill-opacity="0.25" stroke="none"/><rect x="526.7" y="103.1" width="31.0" height="176.9" fill="#999" fill-opacity="0.25" stroke="none"/><rect x="595.6" y="38.4" width="31.0" height="241.6" fill="#999" fill-opacity="0.25" stroke="none"/><rect x="664.5" y="32.0" width="31.0" height="248.0" fill="#999" fill-opacity="0.25" stroke="none"/><polyline fill="none" stroke="#1f77b4" stroke-width="2" points="60.0,34.5 128.9,34.5 197.8,34.3 266.7,32.0 335.6,34.0 404.4,33.6 473.3,34.8 542.2,36.9 611.1,35.6 680.0,37.6"/><line x1="692" y1="40" x2="710" y2="40" stroke="#1f77b4" stroke-width="3"/><text x="716" y="44" font-size="10" fill="#111">nitrogen vacancy</text><polyline fill="none" stroke="#ff7f0e" stroke-width="2" points="60.0,43.2 128.9,44.0 197.8,45.3 266.7,46.4 335.6,48.3 404.4,49.4 473.3,49.2 542.2,49.9 611.1,49.9 680.0,51.9"/><line x1="692" y1="56" x2="710" y2="56" stroke="#ff7f0e" stroke-width="3"/><text x="716" y="60" font-size="10" fill="#111">diamond</text><polyline fill="none" stroke="#2ca02c" stroke-width="2" points="60.0,82.3 128.9,80.3 197.8,85.1 266.7,76.8 335.6,76.5 404.4,84.9 473.3,77.5 542.2,73.7 611.1,77.2 680.0,77.2"/><line x1="692" y1="72" x2="710" y2="72" stroke="#2ca02c" stroke-width="3"/><text x="716" y="76" font-size="10" fill="#111">field</text><polyline fill="none" stroke="#d62728" stroke-width="2" points="60.0,79.8 128.9,94.7 197.8,87.7 266.7,77.5 335.6,89.0 404.4,83.0 473.3,80.2 542.2,90.9 611.1,82.9 680.0,85.4"/><line x1="692" y1="88" x2="710" y2="88" stroke="#d62728" stroke-width="3"/><text x="716" y="92" font-size="10" fill="#111">color centers</text><polyline fill="none" stroke="#9467bd" stroke-width="2" points="60.0,95.5 128.9,91.7 197.8,85.3 266.7,92.9 335.6,83.9 404.4,87.1 473.3,89.9 542.2,88.8 611.1,97.9 680.0,88.6"/><line x1="692" y1="104" x2="710" y2="104" stroke="#9467bd" stroke-width="3"/><text x="716" y="108" font-size="10" fill="#111">defect</text><rect x="692" y="112" width="14" height="10" fill="#999" fill-opacity="0.25" stroke="none"/><text x="712" y="120" font-size="10" fill="#111">문헌수(막대)</text></svg>
