<svg xmlns="http://www.w3.org/2000/svg" width="900" height="320" viewBox="0 0 900 320"><rect x="0" y="0" width="900" height="320" fill="white"/><text x="55" y="18" font-size="12" fill="#111">대안 B: 선택 키워드 점유율(스택, 상위 8개 내 상대비중)</text><line x1="55" y1="32" x2="55" y2="280" stroke="#444" stroke-width="1"/><line x1="55" y1="280" x2="680" y2="280" stroke="#444" stroke-width="1"/><text x="8" y="44" font-size="10" fill="#555">100%</text><text x="8" y="280" font-size="10" fill="#555">0%</text><text x="55.0" y="298" font-size="10" text-anchor="middle" fill="#333">2015</text><text x="124.4" y="298" font-size="10" text-anchor="middle" fill="#333">2016</text><text x="193.9" y="298" font-size="10" text-anchor="middle" fill="#333">2017</text><text x="263.3" y="298" font-size="10" text-anchor="middle" fill="#333">2018</text><text x="332.8" y="298" font-size="10" text-anchor="middle" fill="#333">2019</text><text x="402.2" y="298" font-size="10" text-anchor="middle" fill="#333">2020</text><text x="471.7" y="298" font-size="10" text-anchor="middle" fill="#333">2021</text><text x="541.1" y="298" font-size="10" text-anchor="middle" fill="#333">2022</text><text x="610.6" y="298" font-size="10" text-anchor="middle" fill="#333">2023</text><text x="680.0" y="298" font-size="10" text-anchor="middle" fill="#333">2024</text><path d="M 55.0,169.0 124.4,168.6 193.9,163.7 263.3,161.0 332.8,162.1 402.2,157.0 471.7,164.9 541.1,167.5 610.6,160.0 680.0,163.2 L 680.0,280.0 610.6,280.0 541.1,280.0 471.7,280.0 402.2,280.0 332.8,280.0 263.3,280.0 193.9,280.0 124.4,280.0 55.0,280.0 Z" fill="#1f77b4" fill-opacity="0.75" stroke="none"/><path d="M 55.0,93.0 124.4,94.7 193.9,91.7 263.3,97.6 332.8,98.8 402.2,95.5 471.7,103.3 541.1,103.6 610.6,95.6 680.0,100.6 L 680.0,163.2 610.6,160.0 541.1,167.5 471.7,164.9 402.2,157.0 332.8,162.1 263.3,161.0 193.9,163.7 124.4,168.6 55.0,169.0 Z" fill="#ff7f0e" fill-opacity="0.75" stroke="none"/><path d="M 55.0,79.2 124.4,79.6 193.9,79.0 263.3,80.7 332.8,80.4 402.2,82.3 471.7,85.4 541.1,81.0 610.6,76.0 680.0,79.7 L 680.0,100.6 610.6,95.6 541.1,103.6 471.7,103.3 402.2,95.5 332.8,98.8 263.3,97.6 193.9,91.7 124.4,94.7 55.0,93.0 Z" fill="#2ca02c" fill-opacity="0.75" stroke="none"/><path d="M 55.0,63.8 124.4,71.5 193.9,67.7 263.3,64.4 332.8,69.7 402.2,68.1 471.7,69.5 541.1,70.3 610.6,60.7 680.0,65.1 L 680.0,79.7 610.6,76.0 541.1,81.0 471.7,85.4 402.2,82.3 332.8,80.4 263.3,80.7 193.9,79.0 124.4,79.6 55.0,79.2 Z" fill="#d62728" fill-opacity="0.75" stroke="none"/><path d="M 55.0,56.0 124.4,62.3 193.9,55.1 263.3,56.0 332.8,56.3 402.2,56.2 471.7,59.0 541.1,58.6 610.6,52.7 680.0,52.5 L 680.0,65.1 610.6,60.7 541.1,70.3 471.7,69.5 402.2,68.1 332.8,69.7 263.3,64.4 193.9,67.7 124.4,71.5 55.0,63.8 Z" fill="#9467bd" fill-opacity="0.75" stroke="none"/><path d="M 55.0,45.7 124.4,49.7 193.9,48.0 263.3,46.2 332.8,46.5 402.2,47.7 471.7,48.2 541.1,50.4 610.6,45.7 680.0,46.8 L 680.0,52.5 610.6,52.7 541.1,58.6 471.7,59.0 402.2,56.2 332.8,56.3 263.3,56.0 193.9,55.1 124.4,62.3 55.0,56.0 Z" fill="#8c564b" fill-opacity="0.75" stroke="none"/><path d="M 55.0,43.4 124.4,43.3 193.9,41.4 263.3,40.5 332.8,40.8 402.2,41.3 471.7,43.0 541.1,41.5 610.6,40.7 680.0,41.8 L 680.0,46.8 610.6,45.7 541.1,50.4 471.7,48.2 402.2,47.7 332.8,46.5 263.3,46.2 193.9,48.0 124.4,49.7 55.0,45.7 Z" fill="#e377c2" fill-opacity="0.75" stroke="none"/><path d="M 55.0,32.0 124.4,32.0 193.9,32.0 263.3,32.0 332.8,32.0 402.2,32.0 471.7,32.0 541.1,32.0 610.6,32.0 680.0,32.0 L 680.0,41.8 610.6,40.7 541.1,41.5 471.7,43.0 402.2,41.3 332.8,40.8 263.3,40.5 193.9,41.4 124.4,43.3 55.0,43.4 Z" fill="#7f7f7f" fill-opacity="0.75" stroke="none"/><rect x="692" y="32" width="14" height="10" fill="#1f77b4" fill-opacity="0.75" stroke="none"/><text x="712" y="40" font-size="10" fill="#111">nitrogen vacancy</text><rect x="692" y="48" width="14" height="10" fill="#ff7f0e" fill-opacity="0.75" stroke="none"/><text x="712" y="56" font-size="10" fill="#111">diamond</text><rect x="692" y="64" width="14" height="10" fill="#2ca02c" fill-opacity="0.75" stroke="none"/><text x="712" y="72" font-size="10" fill="#111">field</text><rect x="692" y="80" width="14" height="10" fill="#d62728" fill-opacity="0.75" stroke="none"/><text x="712" y="88" font-size="10" fill="#111">color centers</text><rect x="692" y="96" width="14" height="10" fill="#9467bd" fill-opacity="0.75" stroke="none"/><text x="712" y="104" font-size="10" fill="#111">defect</text><rect x="692" y="112" width="14" height="10" fill="#8c564b" fill-opacity="0.75" stroke="none"/><text x="712" y="120" font-size="10" fill="#111">nanodiamond</text><rect x="692" y="128" width="14" height="10" fill="#e377c2" fill-opacity="0.75" stroke="none"/><text x="712" y="136" font-size="10" fill="#111">qubit</text><rect x="692" y="144" width="14" height="10" fill="#7f7f7f" fill-opacity="0.75" stroke="none"/><text x="712" y="152" font-size="10" fill="#111">photon</text></svg>
