<svg xmlns="http://www.w3.org/2000/svg" width="900" height="390" viewBox="0 0 900 390"><rect x="0" y="0" width="900" height="390" fill="white"/><text x="266.0" y="20" font-size="10" text-anchor="middle" fill="#333">2015</text><text x="318.0" y="20" font-size="10" text-anchor="middle" fill="#333">2016</text><text x="370.0" y="20" font-size="10" text-anchor="middle" fill="#333">2017</text><text x="422.0" y="20" font-size="10" text-anchor="middle" fill="#333">2018</text><text x="474.0" y="20" font-size="10" text-anchor="middle" fill="#333">2019</text><text x="526.0" y="20" font-size="10" text-anchor="middle" fill="#333">2020</text><text x="578.0" y="20" font-size="10" text-anchor="middle" fill="#333">2021</text><text x="630.0" y="20" font-size="10" text-anchor="middle" fill="#333">2022</text><text x="682.0" y="20" font-size="10" text-anchor="middle" fill="#333">2023</text><text x="734.0" y="20" font-size="10" text-anchor="middle" fill="#333">2024</text><text x="232" y="45.8" font-size="11" text-anchor="end" fill="#111">sustainability</text><text x="232" y="67.8" font-size="11" text-anchor="end" fill="#111">cellulose</text><text x="232" y="89.8" font-size="11" text-anchor="end" fill="#111">nanocomposite</text><text x="232" y="111.8" font-size="11" text-anchor="end" fill="#111">composite</text><text x="232" y="133.8" font-size="11" text-anchor="end" fill="#111">lignin</text><text x="232" y="155.8" font-size="11" text-anchor="end" fill="#111">nanocellulose</text><text x="232" y="177.8" font-size="11" text-anchor="end" fill="#111">water</text><text x="232" y="199.8" font-size="11" text-anchor="end" fill="#111">nanoparticles</text><text x="232" y="221.8" font-size="11" text-anchor="end" fill="#111">polymer</text><text x="232" y="243.8" font-size="11" text-anchor="end" fill="#111">ultraviolet</text><text x="232" y="265.8" font-size="11" text-anchor="end" fill="#111">packaging</text><text x="232" y="287.8" font-size="11" text-anchor="end" fill="#111">strength</text><text x="232" y="309.8" font-size="11" text-anchor="end" fill="#111">wood</text><text x="232" y="331.8" font-size="11" text-anchor="end" fill="#111">coating</text><text x="232" y="353.8" font-size="11" text-anchor="end" fill="#111">adhesive</text><rect x="240" y="30" width="50" height="20" fill="rgb(225,223,248)" stroke="#ffffff" stroke-width="1"/><rect x="292" y="30" width="50" height="20" fill="rgb(216,211,245)" stroke="#ffffff" stroke-width="1"/><rect x="344" y="30" width="50" height="20" fill="rgb(209,203,243)" stroke="#ffffff" stroke-width="1"/><rect x="396" y="30" width="50" height="20" fill="rgb(197,188,239)" stroke="#ffffff" stroke-width="1"/><rect x="448" y="30" width="50" height="20" fill="rgb(197,188,239)" stroke="#ffffff" stroke-width="1"/><rect x="500" y="30" width="50" height="20" fill="rgb(191,181,237)" stroke="#ffffff" stroke-width="1"/><rect x="552" y="30" width="50" height="20" fill="rgb(168,152,229)" stroke="#ffffff" stroke-width="1"/><rect x="604" y="30" width="50" height="20" fill="rgb(174,159,231)" stroke="#ffffff" stroke-width="1"/><rect x="656" y="30" width="50" height="20" fill="rgb(164,146,228)" stroke="#ffffff" stroke-width="1"/><rect x="708" y="30" width="50" height="20" fill="rgb(125,98,215)" stroke="#ffffff" stroke-width="1"/><rect x="240" y="52" width="50" height="20" fill="rgb(147,125,222)" stroke="#ffffff" stroke-width="1"/><rect x="292" y="52" width="50" height="20" fill="rgb(153,134,224)" stroke="#ffffff" stroke-width="1"/><rect x="344" y="52" width="50" height="20" fill="rgb(145,123,221)" stroke="#ffffff" stroke-width="1"/><rect x="396" y="52" width="50" height="20" fill="rgb(130,104,216)" stroke="#ffffff" stroke-width="1"/><rect x="448" y="52" width="50" height="20" fill="rgb(125,98,215)" stroke="#ffffff" stroke-width="1"/><rect x="500" y="52" width="50" height="20" fill="rgb(140,117,220)" stroke="#ffffff" stroke-width="1"/><rect x="552" y="52" width="50" height="20" fill="rgb(144,122,221)" stroke="#ffffff" stroke-width="1"/><rect x="604" y="52" width="50" height="20" fill="rgb(148,127,222)" stroke="#ffffff" stroke-width="1"/><rect x="656" y="52" width="50" height="20" fill="rgb(150,129,223)" stroke="#ffffff" stroke-width="1"/><rect x="708" y="52" width="50" height="20" fill="rgb(163,145,227)" stroke="#ffffff" stroke-width="1"/><rect x="240" y="74" width="50" height="20" fill="rgb(167,151,229)" stroke="#ffffff" stroke-width="1"/><rect x="292" y="74" width="50" height="20" fill="rgb(165,149,228)" stroke="#ffffff" stroke-width="1"/><rect x="344" y="74" width="50" height="20" fill="rgb(159,141,226)" stroke="#ffffff" stroke-width="1"/><rect x="396" y="74" width="50" height="20" fill="rgb(164,147,228)" stroke="#ffffff" stroke-width="1"/><rect x="448" y="74" width="50" height="20" fill="rgb(144,122,221)" stroke="#ffffff" stroke-width="1"/><rect x="500" y="74" width="50" height="20" fill="rgb(178,164,232)" stroke="#ffffff" stroke-width="1"/><rect x="552" y="74" width="50" height="20" fill="rgb(125,98,215)" stroke="#ffffff" stroke-width="1"/><rect x="604" y="74" width="50" height="20" fill="rgb(147,125,222)" stroke="#ffffff" stroke-width="1"/><rect x="656" y="74" width="50" height="20" fill="rgb(140,116,220)" stroke="#ffffff" stroke-width="1"/><rect x="708" y="74" width="50" height="20" fill="rgb(173,159,231)" stroke="#ffffff" stroke-width="1"/><rect x="240" y="96" width="50" height="20" fill="rgb(178,164,232)" stroke="#ffffff" stroke-width="1"/><rect x="292" y="96" width="50" height="20" fill="rgb(125,98,215)" stroke="#ffffff" stroke-width="1"/><rect x="344" y="96" width="50" height="20" fill="rgb(154,134,224)" stroke="#ffffff" stroke-width="1"/><rect x="396" y="96" width="50" height="20" fill="rgb(174,159,231)" stroke="#ffffff" stroke-width="1"/><rect x="448" y="96" width="50" height="20" fill="rgb(130,104,216)" stroke="#ffffff" stroke-width="1"/><rect x="500" y="96" width="50" height="20" fill="rgb(134,110,218)" stroke="#ffffff" stroke-width="1"/><rect x="552" y="96" width="50" height="20" fill="rgb(156,137,225)" stroke="#ffffff" stroke-width="1"/><rect x="604" y="96" width="50" height="20" fill="rgb(132,107,217)" stroke="#ffffff" stroke-width="1"/><rect x="656" y="96" width="50" height="20" fill="rgb(125,98,215)" stroke="#ffffff" stroke-width="1"/><rect x="708" y="96" width="50" height="20" fill="rgb(125,98,215)" stroke="#ffffff" stroke-width="1"/><rect x="240" y="118" width="50" height="20" fill="rgb(195,185,238)" stroke="#ffffff" stroke-width="1"/><rect x="292" y="118" width="50" height="20" fill="rgb(171,156,230)" stroke="#ffffff" stroke-width="1"/><rect x="344" y="118" width="50" height="20" fill="rgb(166,149,228)" stroke="#ffffff" stroke-width="1"/><rect x="396" y="118" width="50" height="20" fill="rgb(171,155,230)" stroke="#ffffff" stroke-width="1"/><rect x="448" y="118" width="50" height="20" fill="rgb(141,119,220)" stroke="#ffffff" stroke-width="1"/><rect x="500" y="118" width="50" height="20" fill="rgb(147,125,222)" stroke="#ffffff" stroke-width="1"/><rect x="552" y="118" width="50" height="20" fill="rgb(129,103,216)" stroke="#ffffff" stroke-width="1"/><rect x="604" y="118" width="50" height="20" fill="rgb(146,124,222)" stroke="#ffffff" stroke-width="1"/><rect x="656" y="118" width="50" height="20" fill="rgb(125,98,215)" stroke="#ffffff" stroke-width="1"/><rect x="708" y="118" width="50" height="20" fill="rgb(152,132,224)" stroke="#ffffff" stroke-width="1"/><rect x="240" y="140" width="50" height="20" fill="rgb(165,148,228)" stroke="#ffffff" stroke-width="1"/><rect x="292" y="140" width="50" height="20" fill="rgb(165,148,228)" stroke="#ffffff" stroke-width="1"/><rect x="344" y="140" width="50" height="20" fill="rgb(144,121,221)" stroke="#ffffff" stroke-width="1"/><rect x="396" y="140" width="50" height="20" fill="rgb(151,130,223)" stroke="#ffffff" stroke-width="1"/><rect x="448" y="140" width="50" height="20" fill="rgb(125,98,215)" stroke="#ffffff" stroke-width="1"/><rect x="500" y="140" width="50" height="20" fill="rgb(141,119,220)" stroke="#ffffff" stroke-width="1"/><rect x="552" y="140" width="50" height="20" fill="rgb(143,121,221)" stroke="#ffffff" stroke-width="1"/><rect x="604" y="140" width="50" height="20" fill="rgb(158,140,226)" stroke="#ffffff" stroke-width="1"/><rect x="656" y="140" width="50" height="20" fill="rgb(162,144,227)" stroke="#ffffff" stroke-width="1"/><rect x="708" y="140" width="50" height="20" fill="rgb(156,137,225)" stroke="#ffffff" stroke-width="1"/><rect x="240" y="162" width="50" height="20" fill="rgb(166,149,228)" stroke="#ffffff" stroke-width="1"/><rect x="292" y="162" width="50" height="20" fill="rgb(177,164,232)" stroke="#ffffff" stroke-width="1"/><rect x="344" y="162" width="50" height="20" fill="rgb(150,130,223)" stroke="#ffffff" stroke-width="1"/><rect x="396" y="162" width="50" height="20" fill="rgb(130,105,216)" stroke="#ffffff" stroke-width="1"/><rect x="448" y="162" width="50" height="20" fill="rgb(159,141,226)" stroke="#ffffff" stroke-width="1"/><rect x="500" y="162" width="50" height="20" fill="rgb(157,138,225)" stroke="#ffffff" stroke-width="1"/><rect x="552" y="162" width="50" height="20" fill="rgb(138,114,219)" stroke="#ffffff" stroke-width="1"/><rect x="604" y="162" width="50" height="20" fill="rgb(136,112,218)" stroke="#ffffff" stroke-width="1"/><rect x="656" y="162" width="50" height="20" fill="rgb(132,107,217)" stroke="#ffffff" stroke-width="1"/><rect x="708" y="162" width="50" height="20" fill="rgb(125,98,215)" stroke="#ffffff" stroke-width="1"/><rect x="240" y="184" width="50" height="20" fill="rgb(173,158,231)" stroke="#ffffff" stroke-width="1"/><rect x="292" y="184" width="50" height="20" fill="rgb(192,182,237)" stroke="#ffffff" stroke-width="1"/><rect x="344" y="184" width="50" height="20" fill="rgb(175,161,231)" stroke="#ffffff" stroke-width="1"/><rect x="396" y="184" width="50" height="20" fill="rgb(194,184,238)" stroke="#ffffff" stroke-width="1"/><rect x="448" y="184" width="50" height="20" fill="rgb(164,147,228)" stroke="#ffffff" stroke-width="1"/><rect x="500" y="184" width="50" height="20" fill="rgb(181,168,233)" stroke="#ffffff" stroke-width="1"/><rect x="552" y="184" width="50" height="20" fill="rgb(141,118,220)" stroke="#ffffff" stroke-width="1"/><rect x="604" y="184" width="50" height="20" fill="rgb(144,122,221)" stroke="#ffffff" stroke-width="1"/><rect x="656" y="184" width="50" height="20" fill="rgb(125,98,215)" stroke="#ffffff" stroke-width="1"/><rect x="708" y="184" width="50" height="20" fill="rgb(158,139,226)" stroke="#ffffff" stroke-width="1"/><rect x="240" y="206" width="50" height="20" fill="rgb(183,171,234)" stroke="#ffffff" stroke-width="1"/><rect x="292" y="206" width="50" height="20" fill="rgb(125,98,215)" stroke="#ffffff" stroke-width="1"/><rect x="344" y="206" width="50" height="20" fill="rgb(169,153,229)" stroke="#ffffff" stroke-width="1"/><rect x="396" y="206" width="50" height="20" fill="rgb(176,162,232)" stroke="#ffffff" stroke-width="1"/><rect x="448" y="206" width="50" height="20" fill="rgb(167,151,229)" stroke="#ffffff" stroke-width="1"/><rect x="500" y="206" width="50" height="20" fill="rgb(171,156,230)" stroke="#ffffff" stroke-width="1"/><rect x="552" y="206" width="50" height="20" fill="rgb(175,161,231)" stroke="#ffffff" stroke-width="1"/><rect x="604" y="206" width="50" height="20" fill="rgb(166,150,228)" stroke="#ffffff" stroke-width="1"/><rect x="656" y="206" width="50" height="20" fill="rgb(190,179,236)" stroke="#ffffff" stroke-width="1"/><rect x="708" y="206" width="50" height="20" fill="rgb(175,160,231)" stroke="#ffffff" stroke-width="1"/><rect x="240" y="228" width="50" height="20" fill="rgb(194,184,238)" stroke="#ffffff" stroke-width="1"/><rect x="292" y="228" width="50" height="20" fill="rgb(192,182,237)" stroke="#ffffff" stroke-width="1"/><rect x="344" y="228" width="50" height="20" fill="rgb(183,170,234)" stroke="#ffffff" stroke-width="1"/><rect x="396" y="228" width="50" height="20" fill="rgb(191,181,237)" stroke="#ffffff" stroke-width="1"/><rect x="448" y="228" width="50" height="20" fill="rgb(185,173,235)" stroke="#ffffff" stroke-width="1"/><rect x="500" y="228" width="50" height="20" fill="rgb(179,165,233)" stroke="#ffffff" stroke-width="1"/><rect x="552" y="228" width="50" height="20" fill="rgb(177,164,232)" stroke="#ffffff" stroke-width="1"/><rect x="604" y="228" width="50" height="20" fill="rgb(176,162,232)" stroke="#ffffff" stroke-width="1"/><rect x="656" y="228" width="50" height="20" fill="rgb(135,110,218)" stroke="#ffffff" stroke-width="1"/><rect x="708" y="228" width="50" height="20" fill="rgb(125,98,215)" stroke="#ffffff" stroke-width="1"/><rect x="240" y="250" width="50" height="20" fill="rgb(208,201,242)" stroke="#ffffff" stroke-width="1"/><rect x="292" y="250" width="50" height="20" fill="rgb(225,223,248)" stroke="#ffffff" stroke-width="1"/><rect x="344" y="250" width="50" height="20" fill="rgb(180,167,233)" stroke="#ffffff" stroke-width="1"/><rect x="396" y="250" width="50" height="20" fill="rgb(189,179,236)" stroke="#ffffff" stroke-width="1"/><rect x="448" y="250" width="50" height="20" fill="rgb(179,166,233)" stroke="#ffffff" stroke-width="1"/><rect x="500" y="250" width="50" height="20" fill="rgb(171,156,230)" stroke="#ffffff" stroke-width="1"/><rect x="552" y="250" width="50" height="20" fill="rgb(166,150,228)" stroke="#ffffff" stroke-width="1"/><rect x="604" y="250" width="50" height="20" fill="rgb(139,116,219)" stroke="#ffffff" stroke-width="1"/><rect x="656" y="250" width="50" height="20" fill="rgb(125,99,215)" stroke="#ffffff" stroke-width="1"/><rect x="708" y="250" width="50" height="20" fill="rgb(125,98,215)" stroke="#ffffff" stroke-width="1"/><rect x="240" y="272" width="50" height="20" fill="rgb(131,106,217)" stroke="#ffffff" stroke-width="1"/><rect x="292" y="272" width="50" height="20" fill="rgb(167,151,229)" stroke="#ffffff" stroke-width="1"/><rect x="344" y="272" width="50" height="20" fill="rgb(168,151,229)" stroke="#ffffff" stroke-width="1"/><rect x="396" y="272" width="50" height="20" fill="rgb(178,165,232)" stroke="#ffffff" stroke-width="1"/><rect x="448" y="272" width="50" height="20" fill="rgb(171,155,230)" stroke="#ffffff" stroke-width="1"/><rect x="500" y="272" width="50" height="20" fill="rgb(155,136,225)" stroke="#ffffff" stroke-width="1"/><rect x="552" y="272" width="50" height="20" fill="rgb(152,132,224)" stroke="#ffffff" stroke-width="1"/><rect x="604" y="272" width="50" height="20" fill="rgb(137,113,219)" stroke="#ffffff" stroke-width="1"/><rect x="656" y="272" width="50" height="20" fill="rgb(139,115,219)" stroke="#ffffff" stroke-width="1"/><rect x="708" y="272" width="50" height="20" fill="rgb(125,98,215)" stroke="#ffffff" stroke-width="1"/><rect x="240" y="294" width="50" height="20" fill="rgb(125,98,215)" stroke="#ffffff" stroke-width="1"/><rect x="292" y="294" width="50" height="20" fill="rgb(152,131,224)" stroke="#ffffff" stroke-width="1"/><rect x="344" y="294" width="50" height="20" fill="rgb(148,127,222)" stroke="#ffffff" stroke-width="1"/><rect x="396" y="294" width="50" height="20" fill="rgb(167,150,229)" stroke="#ffffff" stroke-width="1"/><rect x="448" y="294" width="50" height="20" fill="rgb(185,173,235)" stroke="#ffffff" stroke-width="1"/><rect x="500" y="294" width="50" height="20" fill="rgb(177,163,232)" stroke="#ffffff" stroke-width="1"/><rect x="552" y="294" width="50" height="20" fill="rgb(174,159,231)" stroke="#ffffff" stroke-width="1"/><rect x="604" y="294" width="50" height="20" fill="rgb(193,183,237)" stroke="#ffffff" stroke-width="1"/><rect x="656" y="294" width="50" height="20" fill="rgb(189,178,236)" stroke="#ffffff" stroke-width="1"/><rect x="708" y="294" width="50" height="20" fill="rgb(181,168,233)" stroke="#ffffff" stroke-width="1"/><rect x="240" y="316" width="50" height="20" fill="rgb(181,168,233)" stroke="#ffffff" stroke-width="1"/><rect x="292" y="316" width="50" height="20" fill="rgb(186,175,235)" stroke="#ffffff" stroke-width="1"/><rect x="344" y="316" width="50" height="20" fill="rgb(130,104,216)" stroke="#ffffff" stroke-width="1"/><rect x="396" y="316" width="50" height="20" fill="rgb(142,120,220)" stroke="#ffffff" stroke-width="1"/><rect x="448" y="316" width="50" height="20" fill="rgb(179,166,233)" stroke="#ffffff" stroke-width="1"/><rect x="500" y="316" width="50" height="20" fill="rgb(137,113,219)" stroke="#ffffff" stroke-width="1"/><rect x="552" y="316" width="50" height="20" fill="rgb(166,149,228)" stroke="#ffffff" stroke-width="1"/><rect x="604" y="316" width="50" height="20" fill="rgb(125,98,215)" stroke="#ffffff" stroke-width="1"/><rect x="656" y="316" width="50" height="20" fill="rgb(140,117,220)" stroke="#ffffff" stroke-width="1"/><rect x="708" y="316" width="50" height="20" fill="rgb(137,113,219)" stroke="#ffffff" stroke-width="1"/><rect x="240" y="338" width="50" height="20" fill="rgb(125,98,215)" stroke="#ffffff" stroke-width="1"/><rect x="292" y="338" width="50" height="20" fill="rgb(190,179,236)" stroke="#ffffff" stroke-width="1"/><rect x="344" y="338" width="50" height="20" fill="rgb(153,133,224)" stroke="#ffffff" stroke-width="1"/><rect x="396" y="338" width="50" height="20" fill="rgb(184,172,234)" stroke="#ffffff" stroke-width="1"/><rect x="448" y="338" width="50" height="20" fill="rgb(203,196,241)" stroke="#ffffff" stroke-width="1"/><rect x="500" y="338" width="50" height="20" fill="rgb(170,155,230)" stroke="#ffffff" stroke-width="1"/><rect x="552" y="338" width="50" height="20" fill="rgb(156,137,225)" stroke="#ffffff" stroke-width="1"/><rect x="604" y="338" width="50" height="20" fill="rgb(168,152,229)" stroke="#ffffff" stroke-width="1"/><rect x="656" y="338" width="50" height="20" fill="rgb(188,176,236)" stroke="#ffffff" stroke-width="1"/><rect x="708" y="338" width="50" height="20" fill="rgb(169,153,229)" stroke="#ffffff" stroke-width="1"/><rect x="240" y="368" width="1" height="10" fill="rgb(245,248,255)" stroke="none"/><rect x="241" y="368" width="1" height="10" fill="rgb(244,246,254)" stroke="none"/><rect x="242" y="368" width="1" height="10" fill="rgb(243,245,254)" stroke="none"/><rect x="243" y="368" width="1" height="10" fill="rgb(242,244,254)" stroke="none"/><rect x="244" y="368" width="1" height="10" fill="rgb(241,243,253)" stroke="none"/><rect x="245" y="368" width="1" height="10" fill="rgb(240,242,253)" stroke="none"/><rect x="246" y="368" width="1" height="10" fill="rgb(239,241,253)" stroke="none"/><rect x="247" y="368" width="1" height="10" fill="rgb(238,240,252)" stroke="none"/><rect x="248" y="368" width="1" height="10" fill="rgb(238,239,252)" stroke="none"/><rect x="249" y="368" width="1" height="10" fill="rgb(237,238,252)" stroke="none"/><rect x="250" y="368" width="1" height="10" fill="rgb(236,237,252)" stroke="none"/><rect x="251" y="368" width="1" height="10" fill="rgb(235,236,251)" stroke="none"/><rect x="252" y="368" width="1" height="10" fill="rgb(234,235,251)" stroke="none"/><rect x="253" y="368" width="1" height="10" fill="rgb(233,233,251)" stroke="none"/><rect x="254" y="368" width="1" height="10" fill="rgb(232,232,250)" stroke="none"/><rect x="255" y="368" width="1" height="10" fill="rgb(232,231,250)" stroke="none"/><rect x="256" y="368" width="1" height="10" fill="rgb(231,230,250)" stroke="none"/><rect x="257" y="368" width="1" height="10" fill="rgb(230,229,250)" stroke="none"/><rect x="258" y="368" width="1" height="10" fill="rgb(229,228,249)" stroke="none"/><rect x="259" y="368" width="1" height="10" fill="rgb(228,227,249)" stroke="none"/><rect x="260" y="368" width="1" height="10" fill="rgb(227,226,249)" stroke="none"/><rect x="261" y="368" width="1" height="10" fill="rgb(226,225,248)" stroke="none"/><rect x="262" y="368" width="1" height="10" fill="rgb(226,224,248)" stroke="none"/><rect x="263" y="368" width="1" height="10" fill="rgb(225,223,248)" stroke="none"/><rect x="264" y="368" width="1" height="10" fill="rgb(224,222,248)" stroke="none"/><rect x="265" y="368" width="1" height="10" fill="rgb(223,221,247)" stroke="none"/><rect x="266" y="368" width="1" height="10" fill="rgb(222,219,247)" stroke="none"/><rect x="267" y="368" width="1" height="10" fill="rgb(221,218,247)" stroke="none"/><rect x="268" y="368" width="1" height="10" fill="rgb(220,217,246)" stroke="none"/><rect x="269" y="368" width="1" height="10" fill="rgb(219,216,246)" stroke="none"/><rect x="270" y="368" width="1" height="10" fill="rgb(219,215,246)" stroke="none"/><rect x="271" y="368" width="1" height="10" fill="rgb(218,214,246)" stroke="none"/><rect x="272" y="368" width="1" height="10" fill="rgb(217,213,245)" stroke="none"/><rect x="273" y="368" width="1" height="10" fill="rgb(216,212,245)" stroke="none"/><rect x="274" y="368" width="1" height="10" fill="rgb(215,211,245)" stroke="none"/><rect x="275" y="368" width="1" height="10" fill="rgb(214,210,244)" stroke="none"/><rect x="276" y="368" width="1" height="10" fill="rgb(213,209,244)" stroke="none"/><rect x="277" y="368" width="1" height="10" fill="rgb(213,208,244)" stroke="none"/><rect x="278" y="368" width="1" height="10" fill="rgb(212,206,244)" stroke="none"/><rect x="279" y="368" width="1" height="10" fill="rgb(211,205,243)" stroke="none"/><rect x="280" y="368" width="1" height="10" fill="rgb(210,204,243)" stroke="none"/><rect x="281" y="368" width="1" height="10" fill="rgb(209,203,243)" stroke="none"/><rect x="282" y="368" width="1" height="10" fill="rgb(208,202,242)" stroke="none"/><rect x="283" y="368" width="1" height="10" fill="rgb(207,201,242)" stroke="none"/><rect x="284" y="368" width="1" height="10" fill="rgb(207,200,242)" stroke="none"/><rect x="285" y="368" width="1" height="10" fill="rgb(206,199,242)" stroke="none"/><rect x="286" y="368" width="1" height="10" fill="rgb(205,198,241)" stroke="none"/><rect x="287" y="368" width="1" height="10" fill="rgb(204,197,241)" stroke="none"/><rect x="288" y="368" width="1" height="10" fill="rgb(203,196,241)" stroke="none"/><rect x="289" y="368" width="1" height="10" fill="rgb(202,195,240)" stroke="none"/><rect x="290" y="368" width="1" height="10" fill="rgb(201,194,240)" stroke="none"/><rect x="291" y="368" width="1" height="10" fill="rgb(200,192,240)" stroke="none"/><rect x="292" y="368" width="1" height="10" fill="rgb(200,191,240)" stroke="none"/><rect x="293" y="368" width="1" height="10" fill="rgb(199,190,239)" stroke="none"/><rect x="294" y="368" width="1" height="10" fill="rgb(198,189,239)" stroke="none"/><rect x="295" y="368" width="1" height="10" fill="rgb(197,188,239)" stroke="none"/><rect x="296" y="368" width="1" height="10" fill="rgb(196,187,238)" stroke="none"/><rect x="297" y="368" width="1" height="10" fill="rgb(195,186,238)" stroke="none"/><rect x="298" y="368" width="1" height="10" fill="rgb(194,185,238)" stroke="none"/><rect x="299" y="368" width="1" height="10" fill="rgb(194,184,238)" stroke="none"/><rect x="300" y="368" width="1" height="10" fill="rgb(193,183,237)" stroke="none"/><rect x="301" y="368" width="1" height="10" fill="rgb(192,182,237)" stroke="none"/><rect x="302" y="368" width="1" height="10" fill="rgb(191,181,237)" stroke="none"/><rect x="303" y="368" width="1" height="10" fill="rgb(190,180,236)" stroke="none"/><rect x="304" y="368" width="1" height="10" fill="rgb(189,178,236)" stroke="none"/><rect x="305" y="368" width="1" height="10" fill="rgb(188,177,236)" stroke="none"/><rect x="306" y="368" width="1" height="10" fill="rgb(188,176,236)" stroke="none"/><rect x="307" y="368" width="1" height="10" fill="rgb(187,175,235)" stroke="none"/><rect x="308" y="368" width="1" height="10" fill="rgb(186,174,235)" stroke="none"/><rect x="309" y="368" width="1" height="10" fill="rgb(185,173,235)" stroke="none"/><rect x="310" y="368" width="1" height="10" fill="rgb(184,172,234)" stroke="none"/><rect x="311" y="368" width="1" height="10" fill="rgb(183,171,234)" stroke="none"/><rect x="312" y="368" width="1" height="10" fill="rgb(182,170,234)" stroke="none"/><rect x="313" y="368" width="1" height="10" fill="rgb(181,169,233)" stroke="none"/><rect x="314" y="368" width="1" height="10" fill="rgb(181,168,233)" stroke="none"/><rect x="315" y="368" width="1" height="10" fill="rgb(180,167,233)" stroke="none"/><rect x="316" y="368" width="1" height="10" fill="rgb(179,165,233)" stroke="none"/><rect x="317" y="368" width="1" height="10" fill="rgb(178,164,232)" stroke="none"/><rect x="318" y="368" width="1" height="10" fill="rgb(177,163,232)" stroke="none"/><rect x="319" y="368" width="1" height="10" fill="rgb(176,162,232)" stroke="none"/><rect x="320" y="368" width="1" height="10" fill="rgb(175,161,231)" stroke="none"/><rect x="321" y="368" width="1" height="10" fill="rgb(175,160,231)" stroke="none"/><rect x="322" y="368" width="1" height="10" fill="rgb(174,159,231)" stroke="none"/><rect x="323" y="368" width="1" height="10" fill="rgb(173,158,231)" stroke="none"/><rect x="324" y="368" width="1" height="10" fill="rgb(172,157,230)" stroke="none"/><rect x="325" y="368" width="1" height="10" fill="rgb(171,156,230)" stroke="none"/><rect x="326" y="368" width="1" height="10" fill="rgb(170,155,230)" stroke="none"/><rect x="327" y="368" width="1" height="10" fill="rgb(169,154,229)" stroke="none"/><rect x="328" y="368" width="1" height="10" fill="rgb(169,153,229)" stroke="none"/><rect x="329" y="368" width="1" height="10" fill="rgb(168,151,229)" stroke="none"/><rect x="330" y="368" width="1" height="10" fill="rgb(167,150,229)" stroke="none"/><rect x="331" y="368" width="1" height="10" fill="rgb(166,149,228)" stroke="none"/><rect x="332" y="368" width="1" height="10" fill="rgb(165,148,228)" stroke="none"/><rect x="333" y="368" width="1" height="10" fill="rgb(164,147,228)" stroke="none"/><rect x="334" y="368" width="1" height="10" fill="rgb(163,146,227)" stroke="none"/><rect x="335" y="368" width="1" height="10" fill="rgb(162,145,227)" stroke="none"/><rect x="336" y="368" width="1" height="10" fill="rgb(162,144,227)" stroke="none"/><rect x="337" y="368" width="1" height="10" fill="rgb(161,143,227)" stroke="none"/><rect x="338" y="368" width="1" height="10" fill="rgb(160,142,226)" stroke="none"/><rect x="339" y="368" width="1" height="10" fill="rgb(159,141,226)" stroke="none"/><rect x="340" y="368" width="1" height="10" fill="rgb(158,140,226)" stroke="none"/><rect x="341" y="368" width="1" height="10" fill="rgb(157,139,225)" stroke="none"/><rect x="342" y="368" width="1" height="10" fill="rgb(156,137,225)" stroke="none"/><rect x="343" y="368" width="1" height="10" fill="rgb(156,136,225)" stroke="none"/><rect x="344" y="368" width="1" height="10" fill="rgb(155,135,225)" stroke="none"/><rect x="345" y="368" width="1" height="10" fill="rgb(154,134,224)" stroke="none"/><rect x="346" y="368" width="1" height="10" fill="rgb(153,133,224)" stroke="none"/><rect x="347" y="368" width="1" height="10" fill="rgb(152,132,224)" stroke="none"/><rect x="348" y="368" width="1" height="10" fill="rgb(151,131,223)" stroke="none"/><rect x="349" y="368" width="1" height="10" fill="rgb(150,130,223)" stroke="none"/><rect x="350" y="368" width="1" height="10" fill="rgb(150,129,223)" stroke="none"/><rect x="351" y="368" width="1" height="10" fill="rgb(149,128,223)" stroke="none"/><rect x="352" y="368" width="1" height="10" fill="rgb(148,127,222)" stroke="none"/><rect x="353" y="368" width="1" height="10" fill="rgb(147,126,222)" stroke="none"/><rect x="354" y="368" width="1" height="10" fill="rgb(146,124,222)" stroke="none"/><rect x="355" y="368" width="1" height="10" fill="rgb(145,123,221)" stroke="none"/><rect x="356" y="368" width="1" height="10" fill="rgb(144,122,221)" stroke="none"/><rect x="357" y="368" width="1" height="10" fill="rgb(143,121,221)" stroke="none"/><rect x="358" y="368" width="1" height="10" fill="rgb(143,120,221)" stroke="none"/><rect x="359" y="368" width="1" height="10" fill="rgb(142,119,220)" stroke="none"/><rect x="360" y="368" width="1" height="10" fill="rgb(141,118,220)" stroke="none"/><rect x="361" y="368" width="1" height="10" fill="rgb(140,117,220)" stroke="none"/><rect x="362" y="368" width="1" height="10" fill="rgb(139,116,219)" stroke="none"/><rect x="363" y="368" width="1" height="10" fill="rgb(138,115,219)" stroke="none"/><rect x="364" y="368" width="1" height="10" fill="rgb(137,114,219)" stroke="none"/><rect x="365" y="368" width="1" height="10" fill="rgb(137,113,219)" stroke="none"/><rect x="366" y="368" width="1" height="10" fill="rgb(136,112,218)" stroke="none"/><rect x="367" y="368" width="1" height="10" fill="rgb(135,110,218)" stroke="none"/><rect x="368" y="368" width="1" height="10" fill="rgb(134,109,218)" stroke="none"/><rect x="369" y="368" width="1" height="10" fill="rgb(133,108,217)" stroke="none"/><rect x="370" y="368" width="1" height="10" fill="rgb(132,107,217)" stroke="none"/><rect x="371" y="368" width="1" height="10" fill="rgb(131,106,217)" stroke="none"/><rect x="372" y="368" width="1" height="10" fill="rgb(131,105,217)" stroke="none"/><rect x="373" y="368" width="1" height="10" fill="rgb(130,104,216)" stroke="none"/><rect x="374" y="368" width="1" height="10" fill="rgb(129,103,216)" stroke="none"/><rect x="375" y="368" width="1" height="10" fill="rgb(128,102,216)" stroke="none"/><rect x="376" y="368" width="1" height="10" fill="rgb(127,101,215)" stroke="none"/><rect x="377" y="368" width="1" height="10" fill="rgb(126,100,215)" stroke="none"/><rect x="378" y="368" width="1" height="10" fill="rgb(125,99,215)" stroke="none"/><rect x="379" y="368" width="1" height="10" fill="rgb(125,98,215)" stroke="none"/><text x="240" y="389" font-size="10" fill="#333">0</text><text x="380" y="389" font-size="10" text-anchor="end" fill="#333">1</text><text x="388" y="389" font-size="10" fill="#333">term별 정규화</text></svg>
